<?xml version="1.0" standalone="no"?><!DOCTYPE svg PUBLIC "-//W3C//DTD SVG 1.1//EN" "http://www.w3.org/Graphics/SVG/1.1/DTD/svg11.dtd"><svg t="1638455157294" class="icon" viewBox="0 0 1024 1024" version="1.1" xmlns="http://www.w3.org/2000/svg" p-id="8681" xmlns:xlink="http://www.w3.org/1999/xlink" width="128" height="128"><defs><style type="text/css">@font-face { font-family: "Material Icons"; font-style: normal; font-weight: 400; src: url("https://fonts.gstatic.com/s/materialicons/v70/flUhRq6tzZclQEJ-Vdg-IuiaDsNc.woff2") format("woff2"); }
</style></defs><path d="M832 320h-96V288h96V192h-60.16l42.56-42.56-67.84-67.84L704 124.16V64h-96v96H192a96 96 0 0 0-96 96v516.48l38.72-32A305.92 305.92 0 0 0 400 896a302.08 302.08 0 0 0 247.68-128h83.2L928 932.48V416a96 96 0 0 0-96-96z" fill="#FFFFFF" p-id="8682"></path><path d="M400 592m-272 0a272 272 0 1 0 544 0 272 272 0 1 0-544 0Z" fill="#E9EAEB" p-id="8683"></path><path d="M896 416a64 64 0 0 0-64-64H384a64 64 0 0 0-64 64v256a64 64 0 0 0 64 64h358.4l153.6 128v-192z" fill="#FFFFFF" p-id="8684"></path><path d="M128 256a64 64 0 0 1 64-64h448a64 64 0 0 1 64 64v256a64 64 0 0 1-64 64H281.6L128 704v-192z" fill="#A3D4FF" p-id="8685"></path><path d="M832 352h-96v32h96a32 32 0 0 1 32 32v379.52l-101.12-84.16-8.96-7.36H384a32 32 0 0 1-32-32v-64h-32v64a64 64 0 0 0 64 64h358.4l153.6 128V416a64 64 0 0 0-64-64z" fill="#2A5082" p-id="8686"></path><path d="M768 512h32v32h-32zM416 608h224v32h-224zM704 608h96v32h-96z" fill="#2A5082" p-id="8687"></path><path d="M281.6 576H640a64 64 0 0 0 64-64V256a64 64 0 0 0-64-64H192a64 64 0 0 0-64 64v448zM160 256a32 32 0 0 1 32-32h448a32 32 0 0 1 32 32v256a32 32 0 0 1-32 32H270.08l-8.96 7.36L160 635.52V256z" fill="#2A5082" p-id="8688"></path><path d="M224 288h384v32H224zM384 384h224v32h-224zM224 384h96v32H224zM736 224h64v32h-64zM701.376 172.416l45.28-45.248 22.624 22.624-45.28 45.248zM640 96h32v64h-32zM224 672h64v32H224zM254.848 778.176l45.248-45.248 22.624 22.624-45.248 45.248zM352 768h32v64h-32z" fill="#2A5082" p-id="8689"></path></svg>